{
	"asset":{
		"generator":"Khronos glTF Blender I/O v3.5.30",
		"version":"2.0"
	},
	"scene":0,
	"scenes":[
		{
			"name":"Scene",
			"nodes":[
				0,
				1,
				2,
				3,
				4
			]
		}
	],
	"nodes":[
		{
			"mesh":0,
			"name":"round1_atoms",
			"scale":[
				0.38499996066093445,
				0.38499996066093445,
				0.38499996066093445
			],
			"translation":[
				0.8653064370155334,
				0,
				0.49691659212112427
			]
		},
		{
			"mesh":1,
			"name":"round1_bonds",
			"rotation":[
				-0.09198372811079025,
				0.43070435523986816,
				0.7010983824729919,
				0.5607975125312805
			],
			"translation":[
				0.4104595184326172,
				0,
				0.7600554823875427
			]
		},
		{
			"mesh":2,
			"name":"round2_atoms",
			"scale":[
				0.375,
				0.375,
				0.375
			],
			"translation":[
				1.7233061790466309,
				0,
				0.9939166307449341
			]
		},
		{
			"mesh":3,
			"name":"round2_bonds",
			"rotation":[
				0.08054066449403763,
				0.439789354801178,
				-0.7025050520896912,
				0.5537013411521912
			],
			"translation":[
				-0.456306517124176,
				0,
				2.2865028381347656
			]
		},
		{
			"mesh":4,
			"name":"round3_bonds",
			"rotation":[
				-0.4275665581226349,
				0.09593383967876434,
				0.5631935000419617,
				0.7005687952041626
			],
			"translation":[
				2.4114251136779785,
				0,
				2.3864946365356445
			]
		}
	],
	"materials":[
		{
			"doubleSided":true,
			"name":"Carbon",
			"pbrMetallicRoughness":{
				"baseColorFactor":[
					0.5600000023841858,
					0.5600000023841858,
					0.5600000023841858,
					1
				],
				"metallicFactor":0,
				"roughnessFactor":0.5
			}
		},
		{
			"doubleSided":true,
			"name":"Nitrogen",
			"pbrMetallicRoughness":{
				"baseColorFactor":[
					0.18000000715255737,
					0.3100000023841858,
					0.9700000286102295,
					1
				],
				"metallicFactor":0,
				"roughnessFactor":0.5
			}
		},
		{
			"doubleSided":true,
			"name":"Fluorine",
			"pbrMetallicRoughness":{
				"baseColorFactor":[
					0.5600000023841858,
					0.8700000047683716,
					0.3100000023841858,
					1
				],
				"metallicFactor":0,
				"roughnessFactor":0.5
			}
		}
	],
	"meshes":[
		{
			"name":"round1_atoms",
			"primitives":[
				{
					"attributes":{
						"POSITION":0,
						"TEXCOORD_0":1,
						"NORMAL":2
					},
					"indices":3,
					"material":0
				}
			]
		},
		{
			"name":"round1_bonds",
			"primitives":[
				{
					"attributes":{
						"POSITION":4,
						"NORMAL":5
					},
					"indices":6,
					"material":0
				}
			]
		},
		{
			"name":"round2_atoms",
			"primitives":[
				{
					"attributes":{
						"POSITION":7,
						"TEXCOORD_0":8,
						"NORMAL":9
					},
					"indices":10,
					"material":1
				}
			]
		},
		{
			"name":"round2_bonds",
			"primitives":[
				{
					"attributes":{
						"POSITION":11,
						"NORMAL":12
					},
					"indices":13,
					"material":1
				}
			]
		},
		{
			"name":"round3_bonds",
			"primitives":[
				{
					"attributes":{
						"POSITION":14,
						"NORMAL":15
					},
					"indices":16,
					"material":2
				}
			]
		}
	],
	"accessors":[
		{
			"bufferView":0,
			"componentType":5126,
			"count":7920,
			"max":[
				0.9971466064453125,
				1.000000238418579,
				2.2984459400177
			],
			"min":[
				-5.498446464538574,
				-1.000000238418579,
				-4.893250942230225
			],
			"type":"VEC3"
		},
		{
			"bufferView":1,
			"componentType":5126,
			"count":7920,
			"type":"VEC2"
		},
		{
			"bufferView":2,
			"componentType":5126,
			"count":7920,
			"type":"VEC3"
		},
		{
			"bufferView":3,
			"componentType":5123,
			"count":43776,
			"type":"SCALAR"
		},
		{
			"bufferView":4,
			"componentType":5126,
			"count":7296,
			"max":[
				1.6063567399978638,
				1.5255283117294312,
				0.4131659269332886
			],
			"min":[
				-0.41386571526527405,
				-1.51897394657135,
				-1.6066430807113647
			],
			"type":"VEC3"
		},
		{
			"bufferView":5,
			"componentType":5126,
			"count":7296,
			"type":"VEC3"
		},
		{
			"bufferView":6,
			"componentType":5123,
			"count":21888,
			"type":"SCALAR"
		},
		{
			"bufferView":7,
			"componentType":5126,
			"count":11880,
			"max":[
				3.3731460571289062,
				1,
				5.109147548675537
			],
			"min":[
				-12.565147399902344,
				-1.0000001192092896,
				-10.506479263305664
			],
			"type":"VEC3"
		},
		{
			"bufferView":8,
			"componentType":5126,
			"count":11880,
			"type":"VEC2"
		},
		{
			"bufferView":9,
			"componentType":5126,
			"count":11880,
			"type":"VEC3"
		},
		{
			"bufferView":10,
			"componentType":5123,
			"count":65664,
			"type":"SCALAR"
		},
		{
			"bufferView":11,
			"componentType":5126,
			"count":21812,
			"max":[
				3.463010549545288,
				4.7476654052734375,
				1.0413894653320312
			],
			"min":[
				-1.0407522916793823,
				-1.508358120918274,
				-3.463874101638794
			],
			"type":"VEC3"
		},
		{
			"bufferView":12,
			"componentType":5126,
			"count":21812,
			"type":"VEC3"
		},
		{
			"bufferView":13,
			"componentType":5123,
			"count":65436,
			"type":"SCALAR"
		},
		{
			"bufferView":14,
			"componentType":5126,
			"count":4864,
			"max":[
				3.278045892715454,
				6.893883228302002,
				1.979953646659851
			],
			"min":[
				-1.9793586730957031,
				-0.335144966840744,
				-3.2769830226898193
			],
			"type":"VEC3"
		},
		{
			"bufferView":15,
			"componentType":5126,
			"count":4864,
			"type":"VEC3"
		},
		{
			"bufferView":16,
			"componentType":5123,
			"count":14592,
			"type":"SCALAR"
		}
	],
	"bufferViews":[
		{
			"buffer":0,
			"byteLength":95040,
			"byteOffset":0,
			"target":34962
		},
		{
			"buffer":0,
			"byteLength":63360,
			"byteOffset":95040,
			"target":34962
		},
		{
			"buffer":0,
			"byteLength":95040,
			"byteOffset":158400,
			"target":34962
		},
		{
			"buffer":0,
			"byteLength":87552,
			"byteOffset":253440,
			"target":34963
		},
		{
			"buffer":0,
			"byteLength":87552,
			"byteOffset":340992,
			"target":34962
		},
		{
			"buffer":0,
			"byteLength":87552,
			"byteOffset":428544,
			"target":34962
		},
		{
			"buffer":0,
			"byteLength":43776,
			"byteOffset":516096,
			"target":34963
		},
		{
			"buffer":0,
			"byteLength":142560,
			"byteOffset":559872,
			"target":34962
		},
		{
			"buffer":0,
			"byteLength":95040,
			"byteOffset":702432,
			"target":34962
		},
		{
			"buffer":0,
			"byteLength":142560,
			"byteOffset":797472,
			"target":34962
		},
		{
			"buffer":0,
			"byteLength":131328,
			"byteOffset":940032,
			"target":34963
		},
		{
			"buffer":0,
			"byteLength":261744,
			"byteOffset":1071360,
			"target":34962
		},
		{
			"buffer":0,
			"byteLength":261744,
			"byteOffset":1333104,
			"target":34962
		},
		{
			"buffer":0,
			"byteLength":130872,
			"byteOffset":1594848,
			"target":34963
		},
		{
			"buffer":0,
			"byteLength":58368,
			"byteOffset":1725720,
			"target":34962
		},
		{
			"buffer":0,
			"byteLength":58368,
			"byteOffset":1784088,
			"target":34962
		},
		{
			"buffer":0,
			"byteLength":29184,
			"byteOffset":1842456,
			"target":34963
		}
	],
	"buffers":[
		{
			"byteLength":1871640,
			"uri":"data:application/octet-stream;base64,"
		}
	]
}
