<svg xmlns="http://www.w3.org/2000/svg" viewBox="0 0 314 301.41">
  <defs>
    <style>
      .a1c731cb-0834-4153-ad04-ecf9d08c0dcb, .b2bda4df-3652-44d8-9cc1-8d3647676902, .bde9c113-bf53-456d-a4e8-a56ae6e247f1 {
        fill: #c7b299;
      }

      .b2bda4df-3652-44d8-9cc1-8d3647676902, .bde9c113-bf53-456d-a4e8-a56ae6e247f1, .f753d5be-120a-4602-9db3-3cab19ab9802 {
        stroke: #c69c6d;
        stroke-miterlimit: 10;
      }

      .b2bda4df-3652-44d8-9cc1-8d3647676902, .f753d5be-120a-4602-9db3-3cab19ab9802 {
        stroke-width: 2px;
      }

      .f753d5be-120a-4602-9db3-3cab19ab9802 {
        fill: none;
      }
    </style>
  </defs>
  <g id="ac680e25-3cef-49d2-bbf1-448f3d41ed9e" data-name="Layer 2">
    <g id="e30ad9e5-ec60-40ae-9336-f50732b08c68" data-name="Layer 1">
      <g>
        <circle class="bde9c113-bf53-456d-a4e8-a56ae6e247f1" cx="30.5" cy="91.5" r="10"/>
        <circle class="bde9c113-bf53-456d-a4e8-a56ae6e247f1" cx="56.5" cy="136.5" r="10"/>
        <circle class="bde9c113-bf53-456d-a4e8-a56ae6e247f1" cx="56.5" cy="45.5" r="10"/>
        <circle class="bde9c113-bf53-456d-a4e8-a56ae6e247f1" cx="106.5" cy="137.5" r="10"/>
        <circle class="bde9c113-bf53-456d-a4e8-a56ae6e247f1" cx="133.5" cy="91.5" r="10"/>
        <circle class="bde9c113-bf53-456d-a4e8-a56ae6e247f1" cx="106.5" cy="45.5" r="10"/>
        <circle class="a1c731cb-0834-4153-ad04-ecf9d08c0dcb" cx="34.5" cy="10.5" r="10"/>
        <circle class="bde9c113-bf53-456d-a4e8-a56ae6e247f1" cx="128.5" cy="10.5" r="10"/>
        <circle class="bde9c113-bf53-456d-a4e8-a56ae6e247f1" cx="30.5" cy="182.5" r="10"/>
        <circle class="bde9c113-bf53-456d-a4e8-a56ae6e247f1" cx="133.5" cy="182.5" r="10"/>
        <circle class="bde9c113-bf53-456d-a4e8-a56ae6e247f1" cx="56.5" cy="227.5" r="10"/>
        <circle class="bde9c113-bf53-456d-a4e8-a56ae6e247f1" cx="106.5" cy="227.5" r="10"/>
        <circle class="bde9c113-bf53-456d-a4e8-a56ae6e247f1" cx="183.5" cy="91.5" r="10"/>
        <circle class="bde9c113-bf53-456d-a4e8-a56ae6e247f1" cx="260.5" cy="47.5" r="10"/>
        <circle class="bde9c113-bf53-456d-a4e8-a56ae6e247f1" cx="209.5" cy="47.5" r="10"/>
        <circle class="bde9c113-bf53-456d-a4e8-a56ae6e247f1" cx="132.5" cy="273.5" r="10"/>
        <circle class="bde9c113-bf53-456d-a4e8-a56ae6e247f1" cx="184.5" cy="273.5" r="10"/>
        <circle class="bde9c113-bf53-456d-a4e8-a56ae6e247f1" cx="183.5" cy="182.5" r="10"/>
        <circle class="bde9c113-bf53-456d-a4e8-a56ae6e247f1" cx="209.5" cy="227.5" r="10"/>
        <circle class="bde9c113-bf53-456d-a4e8-a56ae6e247f1" cx="259.5" cy="227.5" r="10"/>
        <circle class="bde9c113-bf53-456d-a4e8-a56ae6e247f1" cx="209.5" cy="137.5" r="10"/>
        <circle class="bde9c113-bf53-456d-a4e8-a56ae6e247f1" cx="285.5" cy="182.5" r="10"/>
        <circle class="bde9c113-bf53-456d-a4e8-a56ae6e247f1" cx="259.5" cy="138.5" r="10"/>
        <circle class="bde9c113-bf53-456d-a4e8-a56ae6e247f1" cx="285.5" cy="91.5" r="10"/>
        <circle class="bde9c113-bf53-456d-a4e8-a56ae6e247f1" cx="285.5" cy="273.5" r="10"/>
        <line class="b2bda4df-3652-44d8-9cc1-8d3647676902" x1="51" y1="37" x2="40" y2="19"/>
        <line class="b2bda4df-3652-44d8-9cc1-8d3647676902" x1="128" y1="83" x2="111.1" y2="53.7"/>
        <line class="b2bda4df-3652-44d8-9cc1-8d3647676902" x1="189" y1="100" x2="205" y2="129"/>
        <line class="b2bda4df-3652-44d8-9cc1-8d3647676902" x1="127.55" y1="173.85" x2="111.65" y2="145.55"/>
        <line class="b2bda4df-3652-44d8-9cc1-8d3647676902" x1="51.55" y1="128.54" x2="35.65" y2="100.24"/>
        <line class="b2bda4df-3652-44d8-9cc1-8d3647676902" x1="35" y1="191" x2="51" y2="219"/>
        <line class="f753d5be-120a-4602-9db3-3cab19ab9802" x1="67" y1="228" x2="96" y2="228"/>
        <line class="f753d5be-120a-4602-9db3-3cab19ab9802" x1="111" y1="219" x2="128" y2="191"/>
        <line class="f753d5be-120a-4602-9db3-3cab19ab9802" x1="36" y1="174" x2="51" y2="145"/>
        <line class="f753d5be-120a-4602-9db3-3cab19ab9802" x1="66" y1="136" x2="97" y2="136"/>
        <line class="f753d5be-120a-4602-9db3-3cab19ab9802" x1="111" y1="236" x2="127" y2="265"/>
        <line class="f753d5be-120a-4602-9db3-3cab19ab9802" x1="143" y1="273" x2="174" y2="273"/>
        <line class="f753d5be-120a-4602-9db3-3cab19ab9802" x1="190" y1="266" x2="206" y2="237"/>
        <line class="f753d5be-120a-4602-9db3-3cab19ab9802" x1="206" y1="218" x2="190" y2="190"/>
        <line class="f753d5be-120a-4602-9db3-3cab19ab9802" x1="174" y1="182" x2="144" y2="182"/>
        <line class="f753d5be-120a-4602-9db3-3cab19ab9802" x1="219" y1="227" x2="249" y2="227"/>
        <line class="f753d5be-120a-4602-9db3-3cab19ab9802" x1="265" y1="236" x2="281" y2="265"/>
        <line class="f753d5be-120a-4602-9db3-3cab19ab9802" x1="265" y1="219" x2="281" y2="191"/>
        <line class="f753d5be-120a-4602-9db3-3cab19ab9802" x1="282" y1="173" x2="266" y2="146"/>
        <line class="f753d5be-120a-4602-9db3-3cab19ab9802" x1="249" y1="138" x2="220" y2="138"/>
        <line class="f753d5be-120a-4602-9db3-3cab19ab9802" x1="187" y1="173" x2="204" y2="146"/>
        <line class="f753d5be-120a-4602-9db3-3cab19ab9802" x1="110" y1="128" x2="128" y2="100"/>
        <line class="f753d5be-120a-4602-9db3-3cab19ab9802" x1="143" y1="91" x2="174" y2="91"/>
        <line class="f753d5be-120a-4602-9db3-3cab19ab9802" x1="35" y1="83" x2="51" y2="54"/>
        <line class="f753d5be-120a-4602-9db3-3cab19ab9802" x1="66" y1="46" x2="97" y2="46"/>
        <line class="f753d5be-120a-4602-9db3-3cab19ab9802" x1="188" y1="83" x2="206" y2="57"/>
        <line class="f753d5be-120a-4602-9db3-3cab19ab9802" x1="112" y1="37" x2="123" y2="19"/>
        <line class="f753d5be-120a-4602-9db3-3cab19ab9802" x1="280" y1="100" x2="264" y2="129"/>
        <line class="f753d5be-120a-4602-9db3-3cab19ab9802" x1="280" y1="83" x2="266" y2="56"/>
        <line class="f753d5be-120a-4602-9db3-3cab19ab9802" x1="251" y1="48" x2="219" y2="48"/>
        <line class="f753d5be-120a-4602-9db3-3cab19ab9802" x1="204" y1="39" x2="193" y2="19"/>
        <line class="f753d5be-120a-4602-9db3-3cab19ab9802" x1="267" y1="40" x2="279" y2="23"/>
        <line class="f753d5be-120a-4602-9db3-3cab19ab9802" x1="295" y1="91" x2="314" y2="91"/>
        <line class="f753d5be-120a-4602-9db3-3cab19ab9802" x1="295" y1="183" x2="311" y2="183"/>
        <line class="f753d5be-120a-4602-9db3-3cab19ab9802" x1="189" y1="283" x2="197" y2="301"/>
        <line class="f753d5be-120a-4602-9db3-3cab19ab9802" x1="127" y1="281" x2="116" y2="297"/>
        <line class="f753d5be-120a-4602-9db3-3cab19ab9802" x1="49" y1="234" x2="38" y2="246"/>
        <line class="f753d5be-120a-4602-9db3-3cab19ab9802" x1="21" y1="181" y2="181"/>
        <line class="f753d5be-120a-4602-9db3-3cab19ab9802" x1="20" y1="91" x2="7" y2="91"/>
      </g>
    </g>
  </g>
</svg>
