<svg xmlns="http://www.w3.org/2000/svg" viewBox="0 0 478.26 437.95">
  <defs>
    <style>
      .ff0ea4d2-d7ff-4add-b7d9-cd8057db424a {
        fill: none;
        stroke: #c7b299;
        stroke-miterlimit: 10;
      }
    </style>
  </defs>
  <g id="e936bc14-39e2-4c33-b348-7e6a2ac70b64" data-name="Layer 2">
    <g id="a5c2acea-c409-4ff9-9168-487660f21acc" data-name="Layer 1">
      <g>
        <path class="ff0ea4d2-d7ff-4add-b7d9-cd8057db424a" d="M118.79,226s-91.5-87.25,35-225.62"/>
        <path class="ff0ea4d2-d7ff-4add-b7d9-cd8057db424a" d="M118.79,227.44s-49-16-39-97"/>
        <path class="ff0ea4d2-d7ff-4add-b7d9-cd8057db424a" d="M90,271.46s-97.18-87-66.18-193"/>
        <path class="ff0ea4d2-d7ff-4add-b7d9-cd8057db424a" d="M167,226s-44.56-107.5,40.12-169.5"/>
        <path class="ff0ea4d2-d7ff-4add-b7d9-cd8057db424a" d="M268.36,226s-14.57,86.5-117.57,76.5"/>
        <path class="ff0ea4d2-d7ff-4add-b7d9-cd8057db424a" d="M270.15,135.46s20.64-19,62.64-7"/>
        <path class="ff0ea4d2-d7ff-4add-b7d9-cd8057db424a" d="M323.17,141.21s130.62,58.25,154.62,125.25"/>
        <path class="ff0ea4d2-d7ff-4add-b7d9-cd8057db424a" d="M327.47,135s55.39,1.5,120.35,58.5"/>
        <path class="ff0ea4d2-d7ff-4add-b7d9-cd8057db424a" d="M358.27,284.46s-.72,85.6-35.1,122.8"/>
        <path class="ff0ea4d2-d7ff-4add-b7d9-cd8057db424a" d="M253.29,196.64s112.5,28.82,122.5,135.82"/>
        <path class="ff0ea4d2-d7ff-4add-b7d9-cd8057db424a" d="M278.79,327.46s-9,33-59,63"/>
        <path class="ff0ea4d2-d7ff-4add-b7d9-cd8057db424a" d="M193.79,368.46s-92,48.8-193.5-22.6"/>
        <path class="ff0ea4d2-d7ff-4add-b7d9-cd8057db424a" d="M171.77,332.46s-72,9.15-135-40.42"/>
        <path class="ff0ea4d2-d7ff-4add-b7d9-cd8057db424a" d="M245.79,375.46s-32,46-112,62"/>
        <path class="ff0ea4d2-d7ff-4add-b7d9-cd8057db424a" d="M179.79,143.62S257,45.46,390.87,78.46"/>
      </g>
    </g>
  </g>
</svg>
