<svg id="ac7bd25f-1e8e-4ab6-af13-247dcb790a14" data-name="Layer 1" xmlns="http://www.w3.org/2000/svg" viewBox="0 0 1118 504.27">
  </defs>
  <g>
    <path d="M814.81,619.27l-580-7.56A52.7,52.7,0,0,1,183,559.21V285.5A52.56,52.56,0,0,1,235.5,233H368a58.51,58.51,0,0,0,58.5-59A52.5,52.5,0,0,1,479,121H815.5A52.56,52.56,0,0,1,868,173.5V566.77a52.56,52.56,0,0,1-52.49,52.5Z" transform="translate(34 -118)"/>
    <path d="M815.5,124A49.56,49.56,0,0,1,865,173.5V566.77a49.55,49.55,0,0,1-49.49,49.5h-.66l-580-7.56A49.49,49.49,0,0,1,186,559.21V285.5A49.56,49.56,0,0,1,235.5,236H368A61.51,61.51,0,0,0,429.5,174,49.51,49.51,0,0,1,479,124H815.5m0-6H479a55.5,55.5,0,0,0-55.5,56h0A55.5,55.5,0,0,1,368,230H235.5A55.5,55.5,0,0,0,180,285.5V559.21a55.49,55.49,0,0,0,54.78,55.5l580,7.56h.74A55.5,55.5,0,0,0,871,566.77V173.5A55.5,55.5,0,0,0,815.5,118Z" transform="translate(34 -118)"/>
  </g>
  <g class="aadff46d-14b2-4037-8728-c390faf9878c">
    <path class="e4e24e7e-f267-48b5-84c2-5039d7f5a2e9" d="M224,203a41,41,0,0,1,0-82H358a41,41,0,0,1,0,82Z" transform="translate(34 -118)"/>
    <path d="M358,124a38,38,0,0,1,0,76H224a38,38,0,0,1,0-76H358m0-6H224a44,44,0,0,0-44,44h0a44,44,0,0,0,44,44H358a44,44,0,0,0,44-44h0a44,44,0,0,0-44-44Z" transform="translate(34 -118)"/>
  </g>
  <line class="f2836e47-7352-478c-8c47-edd8e9d4f416" y1="463" x2="1118" y2="463"/>
  <path d="M794,733" transform="translate(34 -118)"/>
</svg>
